# xmcd
#
# Track frame offsets: 
#        150
#        6570
#        20360
#        34740
#        41175
#        52740
#        64500
#        70685
#        95325
#
# Disc length: 1494 seconds
#
# Revision: 1
# Processed by: cddbd v1.5.2PL0 Copyright (c) Steve Scherf et al.
# Submitted via: ExactAudioCopy v0.99pb4
#
DISCID=6c05d409
DTITLE=Pine Valley Cosmonauts - Barn Dance Favorites
DYEAR=2004
DGENRE=
TTITLE0=Saturday Night At The Old Barn Dance
TTITLE1=Here, Rattler Here!
TTITLE2=Blues Stay Away From Me
TTITLE3=Little Red Barn
TTITLE4=Bye Bye Blues
TTITLE5=I Want To Be A Cowboy's Sweetheart
TTITLE6=Dixie Cannonball
TTITLE7=Johnny Frigo (German Radio Interview)
TTITLE8=Goin' Down The Road
EXTD=
EXTT0=
EXTT1=
EXTT2=
EXTT3=
EXTT4=
EXTT5=
EXTT6=
EXTT7=
EXTT8=
PLAYORDER=
